<?xml version="1.0" encoding="UTF-8"?>
<svg id="Layer_1" data-name="Layer 1" xmlns="http://www.w3.org/2000/svg" viewBox="0 0 150 40">
  <defs>
    <style>
      .cls-1 {
        stroke-width: 0px;
      }
    </style>
  </defs>
  <g>
    <path class="cls-1" d="m16.68,15.94c-1.37-1.62-2.89-3.22-4.06-3.81-.46-.23-1.95-.48-3.94-.48-.71,0-1.57.05-1.93.08-.1.41-.18.71-.23,1.95-.08,2.36-.05,6.02-.05,6.35.23,0,1.8,0,2.77-.2,2.44-.51,2.95-2.18,3.2-3.86h.3v8.89h-.3c-.28-1.07-1.04-2.82-1.75-3.45-.63-.56-1.32-.84-2.31-.91-1.02-.08-.84-.05-1.9-.05,0,2.18,0,4.37.03,5.48.03,1.09.08,2.16.38,2.61.3.46,1.09.74,2.46.79v.25H0v-.25c.84-.13,1.73-.43,2.18-.96.33-.41.43-1.65.46-2.74.03-.94.05-3.2.05-5.26v-4.95c0-1.22-.03-2.69-.43-3.12-.51-.53-1.12-.61-2.03-.74v-.25h14.98l1.73,4.52-.25.13Z"/>
    <path class="cls-1" d="m27.13,29.75c-5.28,0-9.72-3.88-9.72-9.34,0-5.84,4.62-9.37,10.05-9.37,5.94,0,9.5,4.39,9.5,9.27,0,5.41-4.49,9.44-9.83,9.44Zm.03-18.28c-3.91,0-5.56,4.65-5.56,9.01,0,4.6,1.83,8.84,5.64,8.84s5.53-4.75,5.53-8.99-1.8-8.86-5.61-8.86Z"/>
    <path class="cls-1" d="m73.22,29.58h-16.4v-.25c.84-.13,1.73-.43,2.18-.96.33-.41.43-1.65.46-2.74.03-.94.05-3.2.05-5.26v-4.95c0-1.22-.03-2.69-.43-3.12-.51-.53-1.12-.61-2.03-.74v-.25h14.88l1.73,4.44-.25.13c-1.37-1.7-2.95-3.12-4.11-3.71-.43-.23-1.85-.51-4.06-.51-.71,0-1.47.05-1.8.13-.05.53-.13,2.39-.13,4.62,0,2.56.03,3.45.03,3.63.3,0,1.8,0,2.69-.2,2.06-.48,2.79-1.95,3.2-3.86h.3v8.71h-.3c-.28-1.07-1.14-2.77-1.75-3.33-.53-.48-1.29-.81-2.31-.86-1.02-.05-.74-.05-1.8-.05-.05.46-.05,1.47-.05,2.46,0,.91,0,2.36.03,3.02.03,1.09.08,2.16.38,2.61.3.46,1.6.66,2.84.66.56,0,1.42-.05,2.13-.15,2.11-.28,3.86-1.75,5.53-4.65l.28.08-1.27,5.1Z"/>
    <path class="cls-1" d="m92.49,17.54c-.99-3.17-3.73-6.19-6.83-6.19-4.44,0-6.7,4.6-6.7,9.17,0,4.9,2.54,8.76,6.8,8.76,3.2,0,6.02-3.2,6.7-6.04h.3l-.08,5.94h-.3c-.43-.58-.96-1.24-1.12-1.24-.13,0-2.03,1.8-6.09,1.8-6.5,0-10.41-3.88-10.41-9.34,0-1.19.25-3.17,1.52-5.13,1.47-2.31,4.21-4.34,8.78-4.34,4.06,0,6.09,1.88,6.25,1.88.13,0,.79-.74,1.19-1.32h.28v6.07h-.3Z"/>
    <path class="cls-1" d="m122.11,29.81c-3.4,0-5.18-1.22-5.36-1.22-.1,0-.51.58-.79.96h-.23l-.08-5.74h.25c.63,1.8,2.31,3.96,3.5,4.75.53.36,1.55.84,2.51.84,2.31,0,3.86-1.37,3.86-3.66,0-1.73-1.29-2.54-2.95-3.12-1.07-.38-2.34-.79-3.66-1.32-2.03-.84-3.4-2.46-3.4-4.77,0-3.68,3.38-5.51,6.6-5.51s4.65,1.35,4.87,1.35c.1,0,.51-.63.76-1.04h.28v5.38h-.28c-.84-2.31-3-5.28-5.36-5.28-2.06,0-3.61,1.52-3.61,3.38,0,1.68,1.37,2.61,2.95,3.22.94.38,2.16.81,3.33,1.27,2.51.96,3.91,2.41,3.91,5,0,3.45-3.28,5.51-7.13,5.51Z"/>
    <path class="cls-1" d="m149.77,16.32c-.61-1.22-1.83-2.97-2.36-3.48-.71-.66-1.47-.84-2.74-.86-1.29-.03-1.17-.03-2.67-.03-.03,1.73-.03,5.05-.03,8.3v5.64c0,.91.03,2.01.28,2.36.51.74,1.7.94,2.44,1.07v.25h-9.47v-.25c.89-.1,1.8-.23,2.56-1.09.33-.36.33-1.62.36-2.72.03-.94.05-3.15.05-5.15v-8.4c-1.45,0-1.37,0-2.67.03-1.27.03-2.03.28-2.74.94-.53.51-1.75,2.23-2.31,3.4l-.23-.08.81-5.2c.79.2,1.57.41,2.77.43,2.56.05,3.78.05,6.3.05s3.73-.03,6.3-.05c1.12-.03,1.95-.2,2.74-.43l.84,5.2-.23.08Z"/>
  </g>
  <path class="cls-1" d="m44,20.32c-.25.62-.62,1.84-1.11,3.68-.49,1.83-.73,3.07-.73,3.69,0,.82.68,1.28,2.05,1.37.28.02.42.1.42.25,0,.21-.17.31-.52.31-.28,0-.73-.02-1.36-.07-.47-.03-1.25-.04-2.34-.04s-1.94.01-2.61.04c-.24,0-.44.01-.59.01-.25,0-.38-.07-.38-.22,0-.15.2-.25.6-.3.54-.06.93-.17,1.18-.34s.44-.45.6-.83.54-1.74,1.15-4.07l1.61-6.27c.47-1.86.7-3.14.7-3.83,0-.46-.13-.83-.4-1.11s-.79-.51-1.58-.67c-.22-.05-.34-.14-.34-.27,0-.17.11-.25.32-.25.23,0,.56.01.99.04.47.04,1.02.06,1.65.06l4.92-.06c2.29,0,3.92.38,4.89,1.13.97.77,1.46,1.75,1.46,2.96s-.43,2.17-1.3,3.03c-.86.86-2.1,1.44-3.71,1.75,1,.62,1.62,1.25,1.86,1.89.24.64.36,1.31.36,2,0,.33-.02.65-.07.97-.18,1.29-.27,2.12-.27,2.48,0,.23.08.43.23.6.15.16.32.25.51.25.41,0,.99-.26,1.75-.78.44-.3.71-.45.81-.45.13,0,.2.07.2.21s-.27.4-.81.78c-.54.38-1.15.75-1.83,1.09-.68.35-1.35.52-2.02.52-.48,0-.89-.15-1.24-.44-.35-.29-.53-.74-.53-1.32,0-.42.08-1.01.25-1.78.21-.95.32-1.78.32-2.49,0-1.07-.12-1.85-.35-2.33-.23-.48-.53-.8-.88-.97-.35-.17-1.09-.26-2.21-.26-.28,0-.85.01-1.71.04Zm.14-.63c.53.03.93.04,1.2.04,1.63,0,2.86-.15,3.69-.45.84-.3,1.5-.87,1.98-1.7.49-.84.73-1.69.73-2.57s-.33-1.58-.98-2.13-1.54-.83-2.66-.83c-.6,0-1.26.05-1.98.14,0,.09-.18.61-.52,1.56-.23.65-.53,1.7-.9,3.15s-.56,2.37-.57,2.79Z"/>
  <path class="cls-1" d="m103.43,10.12h.96c1.23,2.67,2.97,6.87,5.22,12.61,1.04,2.63,1.75,4.23,2.14,4.79.39.56,1.01.9,1.86,1.02.28.04.42.16.42.36,0,.29-.18.43-.55.43-.2,0-.71-.03-1.53-.1-.97-.08-1.79-.13-2.45-.13s-1.49.04-2.52.11c-.78.06-1.28.08-1.53.08-.43,0-.64-.14-.64-.41,0-.21.15-.32.45-.35,1.15-.1,1.72-.55,1.72-1.35,0-.38-.17-1.06-.5-2.07-.34-1-.69-1.91-1.08-2.73-.61,0-1.08-.01-1.42-.01-1.88,0-3.35,0-4.4.01-.81,2.2-1.21,3.66-1.21,4.38,0,.51.2.91.6,1.19.4.28.84.45,1.3.49.35.04.53.18.53.43s-.19.38-.57.38c-.15,0-.54-.02-1.18-.07-.82-.07-1.42-.1-1.79-.1-.74,0-1.44.05-2.1.14-.17.03-.31.04-.42.04-.35,0-.52-.14-.52-.42,0-.21.11-.34.34-.41.56-.16,1-.35,1.32-.59.32-.23.66-.68,1.03-1.34.37-.66.81-1.72,1.33-3.18,1.16-3.27,2.89-7.69,5.18-13.25Zm-.99,4.89l-2.43,6.26,4.95-.07c-.26-.73-.66-1.74-1.2-3.01-.59-1.38-1.03-2.44-1.32-3.18Z"/>
</svg>